<svg width="8" height="12" viewBox="0 0 10 14" fill="none" xmlns="http://www.w3.org/2000/svg">
<path d="M0.882399 3.679C0.880346 3.72744 0.888223 3.77579 0.905546 3.82107C0.922869 3.86636 0.949272 3.90762 0.983132 3.94232C1.01699 3.97703 1.05759 4.00444 1.10244 4.02287C1.14728 4.0413 1.19542 4.05036 1.2439 4.0495H2.4814C2.6884 4.0495 2.8534 3.88 2.8804 3.6745C3.0154 2.6905 3.6904 1.9735 4.8934 1.9735C5.9224 1.9735 6.8644 2.488 6.8644 3.7255C6.8644 4.678 6.3034 5.116 5.4169 5.782C4.4074 6.5155 3.6079 7.372 3.6649 8.7625L3.6694 9.088C3.67097 9.18641 3.71118 9.28026 3.78133 9.3493C3.85149 9.41833 3.94597 9.45701 4.0444 9.457H5.2609C5.36035 9.457 5.45574 9.41749 5.52606 9.34717C5.59639 9.27684 5.6359 9.18146 5.6359 9.082V8.9245C5.6359 7.8475 6.0454 7.534 7.1509 6.6955C8.0644 6.001 9.0169 5.23 9.0169 3.6115C9.0169 1.345 7.1029 0.25 5.0074 0.25C3.1069 0.25 1.0249 1.135 0.882399 3.679ZM3.2179 12.3235C3.2179 13.123 3.8554 13.714 4.7329 13.714C5.6464 13.714 6.2749 13.123 6.2749 12.3235C6.2749 11.4955 5.6449 10.9135 4.7314 10.9135C3.8554 10.9135 3.2179 11.4955 3.2179 12.3235Z" fill="white" fill-opacity="0.87"/>
</svg>
