<svg width="26" height="28" viewBox="0 0 26 28" fill="none" xmlns="http://www.w3.org/2000/svg">
<path d="M25.0937 17.3428L23.1777 15.7051C23.2685 15.1484 23.3154 14.5801 23.3154 14.0147C23.3154 13.4492 23.2685 12.8779 23.1777 12.3242L25.0937 10.6865C25.2385 10.5626 25.3421 10.3976 25.3907 10.2134C25.4394 10.0292 25.4308 9.83451 25.3662 9.65528L25.3398 9.5791C24.8125 8.10456 24.0224 6.73776 23.0078 5.54492L22.9551 5.4834C22.8319 5.33853 22.6676 5.2344 22.4841 5.18471C22.3005 5.13503 22.1062 5.14213 21.9267 5.20508L19.5478 6.05176C18.6689 5.33106 17.6904 4.7627 16.6299 4.36719L16.1699 1.87988C16.1352 1.69251 16.0443 1.52012 15.9093 1.38564C15.7743 1.25115 15.6016 1.16093 15.414 1.12695L15.3349 1.1123C13.8115 0.836914 12.206 0.836914 10.6826 1.1123L10.6035 1.12695C10.416 1.16093 10.2433 1.25115 10.1082 1.38564C9.97324 1.52012 9.88234 1.69251 9.84764 1.87988L9.38475 4.37891C8.33425 4.77757 7.35563 5.34455 6.48729 6.05762L4.0908 5.20508C3.91141 5.14163 3.71695 5.13427 3.53327 5.18398C3.34959 5.2337 3.18539 5.33813 3.06248 5.4834L3.00975 5.54492C1.99693 6.73903 1.20703 8.10549 0.677718 9.5791L0.651351 9.65528C0.519515 10.0215 0.627913 10.4316 0.923812 10.6865L2.86326 12.3418C2.77244 12.8926 2.7285 13.4551 2.7285 14.0117C2.7285 14.5742 2.77244 15.1367 2.86326 15.6816L0.929671 17.3369C0.784932 17.4608 0.68134 17.6259 0.632671 17.8101C0.584002 17.9943 0.592561 18.1889 0.65721 18.3682L0.683577 18.4443C1.21385 19.918 1.99608 21.2803 3.01561 22.4785L3.06834 22.54C3.19155 22.6849 3.35576 22.789 3.53933 22.8387C3.7229 22.8884 3.91721 22.8813 4.09666 22.8184L6.49315 21.9658C7.36619 22.6836 8.33885 23.252 9.39061 23.6445L9.8535 26.1436C9.8882 26.3309 9.9791 26.5033 10.1141 26.6378C10.2491 26.7723 10.4218 26.8625 10.6094 26.8965L10.6885 26.9111C12.2269 27.188 13.8024 27.188 15.3408 26.9111L15.4199 26.8965C15.6074 26.8625 15.7801 26.7723 15.9152 26.6378C16.0502 26.5033 16.1411 26.3309 16.1758 26.1436L16.6357 23.6563C17.6963 23.2578 18.6748 22.6924 19.5537 21.9717L21.9326 22.8184C22.112 22.8818 22.3065 22.8892 22.4901 22.8395C22.6738 22.7897 22.838 22.6853 22.9609 22.54L23.0137 22.4785C24.0332 21.2744 24.8154 19.918 25.3457 18.4443L25.3721 18.3682C25.498 18.0049 25.3896 17.5977 25.0937 17.3428ZM13.0146 18.8721C10.1699 18.8721 7.86424 16.5664 7.86424 13.7217C7.86424 10.877 10.1699 8.57129 13.0146 8.57129C15.8594 8.57129 18.165 10.877 18.165 13.7217C18.165 16.5664 15.8594 18.8721 13.0146 18.8721Z" fill="#5F5E76"/>
</svg>
